<?xml version="1.0" encoding="UTF-8"?>
<svg id="Layer_2" data-name="Layer 2" xmlns="http://www.w3.org/2000/svg" viewBox="0 0 1080 1080">
  <defs>
    <style>
      .cls-1 {
        fill: #dceae9;
      }
    </style>
  </defs>
  <path class="cls-1" d="m747.66,439.18c-9.36,1.17-16.88,6.1-24.46,10.47-11.01,6.35-10.14,23.61,1.47,33.2,3.6,2.98,7.83,5.22,11.84,7.7,5.73,3.54,10.15,13.38,8.62,19.65-.99,4.05-3.52,7.38-7.52,7.98-3.07.46-5.74-1.06-8.9-3.47-7.27-5.54-8.19-14.12-13.14-20.54-5.66-7.34-11-9.98-18.33-5.09-13,8.68-27.19,11.63-42.39,12.44-10.08.54-15.35,5.14-17.63,14.7-4.1,17.2-7.99,34.46-11.44,51.8-.88,4.41-2.51,8.45-3.72,12.69-1.08,3.79-.61,5.78,4.38,6.49,8.16,1.17,15.49.51,24.28,5.65,7.85,4.59,17.93,16.66,23.46,27.55,2.66,5.23,5.83,9.29,10.46,12.37,15.42,10.27,30.81,20.53,45.55,31.83,21.89,16.79,39.86,37.22,57.4,58.22,16.01,19.19,28.9,40.47,41.78,61.71,8.08,13.34,15.22,27.34,21.74,41.53,18.46,40.15,28.84,60.41,52.57,97.82,8.59,13.55,13.04,20.52,13.75,22.01,1.41,2.98,6.08,9.98,3.45,12.19-2.87,2.42-9.76-3.8-11.74-5.65-11.39-10.58-21.59-22.33-30.81-34.75-20.39-27.49-40.29-55.39-57.72-84.84-6.89-11.65-13.95-23.13-21.47-34.36-9.83-14.69-20.62-28.72-32.51-41.71-25.56-27.93-54.4-51.96-88.06-69.8-2.94-1.56-6.11-2.78-8.81-4.68-11.53-8.12-24.54-3.61-36.89-4.83-7.91-.78-15.42-.89-23.84-3.06-6.06-1.56-10.85-4.86-14.8-9.99-4.98-6.48-10.44-6.76-14.85.09-8.88,13.79-20.78,25.24-29.38,39.19-6.24,10.12-4.8,13.95,6.62,17.15,15.15,4.24,28.86,10.85,39.03,23.42,1.61,1.99,4.02,2.92,6.67,2.91,9.38-.07,17.93,2.88,27.86,3.34,9.26.43,19.8,12.82,19.57,20.78-.07,2.48-1.74,2.51-3.3,2.72-9.24,1.24-18.03,1.23-25.64-5.78-3.39-3.12-7.79-5.35-12.06-7.26-4.67-2.09-9.96-1.74-12.44,3.07-2.14,4.17-1.65,8.82,2.73,12.66,6.7,5.88,15.81,10.53,21.83,14.83,6.3,4.51,10.52,16.79,9.53,20.94-.71,2.97-3.09,2.19-4.72,2.03-10.51-1.06-19.42-5.38-24.42-15.04-3.66-7.06-7.5-14.27-17.74-12.94-3.72.48-4.5,1.66-2.77,4.66,1.92,3.33,3.94,7.32,6.01,9.88,6.4,7.88,9.33,23.22,4.4,31.42-1.3,2.16-2.59,1.11-4.1.38-7.9-3.82-17.42-14.08-16.73-26.52.49-8.87-3.86-15.57-10.07-20.81-5.42-4.58-10.52-1.51-14.23,3.31-3.51,4.57-6.75,8.8-12.54,11.23-5.46,2.29-11.16,5.02-14.89-.23-3.73-5.26-.57-11.52,3.61-15.78,3-3.05,6.72-5.74,11.11-7.08,2.64-.81,5.36-1.7,7.68-3.14,3.11-1.93,6.18-4.72,5.03-8.72-1.16-4.02-5.34-3.31-8.56-3.38-4.97-.11-9.98.49-14.92.09-4.13-.33-8.4-1.52-9.73-6.34-1.26-4.57,1.62-7.58,5-9.53,5.15-2.97,4.08-4.32-.63-6.28-19.25-7.99-22.08-15.35-16.5-35.34,4.99-17.89,12-34.88,19.2-51.9,2.34-5.53,3.81-11.73,4.15-17.72.51-8.82-7.61-8.55-13.03-9.48-28.68-4.93-56.07-13.44-79.28-31.4-23.03-17.81-42.46-37.66-59.95-62.67-21.96-31.38-35.84-63.67-44.58-99.59-1.38-5.66-2.69-11.34-4.2-16.96-5.08-18.85-16.69-21.07-32.96-12.46-6.32,3.34-12.54,6.89-18.86,10.25-13.15,6.98-23.81.23-28.2-13.01-3.65-11.02-8.64-21.49-12.16-32.51-1.46-4.56-4.05-5.49-8.19-4.21-6,1.85-10.95,4.85-14.23,10.56-5.3,9.24-13.91,12.85-23.75,10.62-2.58-.58-4.1-1.41-3.04-4.45,3.27-9.34,7.31-18,17.54-21.74,1.53-.56,2.96-1.51,4.31-2.46,1.32-.93,2.95-2.05,1.77-3.97-.82-1.34-2.34-1.12-3.77-.85-5.49,1.04-10.5,3.29-15.52,5.66-6.01,2.83-12.09,4.57-18.91,1.69-10.69-4.51-11.64-7.73-2.33-14.99,5.77-4.5,12.67-8.22,20.65-5.42,5.56,1.95,10.91.85,16.22-.54,2.51-.66,6.31-.56,6.59-4.02.29-3.73-3.45-4.95-6.17-5.82-6.18-1.98-11.72-4.89-17.14-8.36-1.74-1.12-3.18-2.65-4.21-4.44-2.51-4.38-2.98-6.86-1.52-9.62,2.26-4.28,5.23-3.29,10.59-3.74,7.85,2.02,13.47,7.4,18.65,13.2,1.92,2.14,3.65,4.48,6.7,4.23,2.11-.17,4.66-.75,6.1-2.11,2.05-1.94.08-4.17-1.27-5.81-4.33-5.22-3.93-11.98-5.84-17.96-.88-2.74.07-6.73,3.05-8.01,3.3-1.41,7.09-.54,9.96,2.06,4.98,4.52,7.6,10.12,6.77,16.94-.29,2.38-.38,5.08,1.77,5.89,2.8,1.06,5.98-1.24,6.92-3.04,1.66-3.18.13-7.62,2-10.65,1.73-2.79,6.79-7.12,10.92-5.84,3.81,1.18,4.36,5.29,4.22,9.1-.1,2.79-.66,8.44-7.52,11.14-11.37,4.48-2.47,32.18,7.72,49.22,10.02,16.76,10.51,18.15,31.6,6.92,15.31-8.15,15.38-21.36,16.29-35.03,1.28-19.25-8.29-35.45-15.48-52.19-8.8-20.49-8.29-40.97.27-60.87,5.32-12.36,7.91-25.33,11.68-38.01,5.19-17.47,11.75-34.15,23.56-48.19,10.89-12.95,29.2-13.98,41.27-2.12,14.78,14.51,22.32,33.01,29.47,51.64,6.19,16.13,12.73,32.18,18.67,48.28,4.75,12.88,5.26,28.09,1.84,42.86-4.33,18.74-7.28,37.09-2.7,57.37,3.78,16.77,14.07,25.42,24.88,34.98,3.89,3.44,10.16,4.72,15.52-.8,12.79-13.18,12.94-14.25-1.15-26.87-3.92-3.51-8.1-6.75-9.94-12.03-2.19-6.32.4-11.45,5.37-14.27,5.28-3,8.66,1.83,11.21,5.74,1.77,2.72,2.66,6.05,3.79,9.15,2.98,8.15,7.19,8.76,13.14,2.2,5.74-6.32,5.77-15.58,11.71-21.79,1.72-1.8,3.18-3.72,5.5-4.74,3.2-1.41,8.02-4.02,9.9-.66,1.84,3.28,3.46,8.18,1.09,12.58-2.67,4.95-6.22,8.96-11.07,12.04-2.28,1.45-5.76,4.01-3.36,7.31,1.75,2.4,5.24,1.31,7.67-.09,5.51-3.17,11.25-6.12,14.9-11.68,5.01-7.64,15.58-10.1,26.71-8.61,1.18.16,3.16.36,2.25,2.27-3.92,8.22-7.25,16.91-17.56,19.66-4.22,1.12-8.2,3.25-12.18,5.16-3.16,1.52-5.92,4.22-5.21,7.72.85,4.22,4.95,3.37,8.27,3.43,9.43.18,18.45-2.96,27.94-2.91,8.97.05,12.93,6.36,17.96,11.68,1.21,1.28,1.01,2.54-.68,3.22-8.79,3.56-16.95,8.77-27.42,3.67-6.52-3.17-14.26-4.6-21.72-1.33-2.39,1.05-4.41,2.57-4.88,5.26-.64,3.59,2.72,5.13,5.06,6.58,2.96,1.84,6.06,3.41,9.16,5,7.06,3.62,9.61,10.18,11.47,17.16.78,2.92-.99,3.79-3.45,4.48-8.44,2.36-20.06-1.62-23.71-9.51-3.58-7.72-10.72-10.02-17.14-13.51-3.75-2.04-6.82-.24-9.11,3.29-4.07,6.28-8.51,12.32-12.48,18.66-4.22,6.74-9.47,11.59-17.96,11.41-4.67-.1-4.39,1.57-3.41,5.64,1.91,7.91,7.03,13.97,11.25,19.96,11.12,15.79,30.52,33.23,47.4,48.91,16.34,15.18,34.47,28.34,49.72,44.72,7.58,8.14,18.24,7.01,21.73-3.24,5.54-16.28,15.64-29.88,23.92-44.53,5.56-9.83,13.73-16.45,25.45-17.43,2.9-.24,4.7-1.12,5.26-4.13,1.48-8,8.28-9.75,16.02-10.49,3.98-.38,7.86-1.33,11.67-2.53,2.07-.65,6.89-1,7.12-5.13.18-3.19-1.91-5.11-4.49-6.41-3.47-1.75-7.01-3.35-10.95-3.78-7.52-.82-10.49-6.91-12.89-12.55-1.17-2.77-2.01-8.73.66-9.95,4.09-1.87,9.39-3.41,14.23-.26,6.3,4.1,12.52,8.43,16.82,14.6,3.3,4.73,6.85,3.08,10.94,2.28,5.07-.99,3.66-4.72,3.79-7.82.23-5.65-.29-11.46-3.58-15.99-5.04-6.96-2.96-14.11-1.79-21.24.7-4.27,3.35-8.06,7.66-9.1,4.39-1.05,7.11,2.93,9.19,5.85,4.99,6.98,6.06,14.94,3.56,23.26-2.56,8.51-3.5,17.29,2.34,24.55,8.13,10.1,20.6,9.39,31.25-2.1,4.2-4.53,8.93-7.81,13.82-11.19,1.6-1.11,3.05-2.37,5.22-2.13,5.92.65,14.9-.97,16.13,5.19,1.36,6.8-5.61,12.7-11.42,16.94-2.78,2.03-6.66,2.56-9.77,3.67Z"/>
</svg>